<svg aria-hidden="true" style="position: absolute; width: 0; height: 0; overflow: hidden;" version="1.1" xmlns="http://www.w3.org/2000/svg" xmlns:xlink="http://www.w3.org/1999/xlink">
<defs>


<!-- PAGES ICON -->
<symbol id="icon__pages" version="1.1" viewBox="0 0 700 700" xmlns="http://www.w3.org/2000/svg" xmlns:xlink="http://www.w3.org/1999/xlink">
 <g>
  <path d="m170.8 515.2h291.2c3.3594 0 5.6016-2.2383 5.6016-5.6016v-39.199h50.398c3.3594 0 5.6016-2.2383 5.6016-5.6016v-314.72c0-1.6797-0.55859-2.8008-1.6797-3.9219l-101.36-99.676c-1.1172-1.1211-2.2383-1.6797-3.918-1.6797h-201.04c-3.3594 0-5.6016 2.2383-5.6016 5.6016v50.398h-39.199c-3.3594 0-5.6016 2.2383-5.6016 5.6016v403.2c0 3.3594 2.2422 5.5977 5.6016 5.5977zm252-450.8 82.32 81.203h-82.32zm-201.6-8.3984h190.4v95.199c0 3.3594 2.2383 5.6016 5.6016 5.6016h95.199v302.4h-291.2zm-44.801 56h33.602v352.8c0 3.3594 2.2383 5.6016 5.6016 5.6016h240.8v33.602l-280-0.003906z"/>
  <use x="70" y="644" xlink:href="#t"/>
  <use x="90.550781" y="644" xlink:href="#c"/>
  <use x="104.359375" y="644" xlink:href="#a"/>
  <use x="123.347656" y="644" xlink:href="#j"/>
  <use x="142.242188" y="644" xlink:href="#b"/>
  <use x="155.628906" y="644" xlink:href="#a"/>
  <use x="174.617188" y="644" xlink:href="#e"/>
  <use x="204.410156" y="644" xlink:href="#i"/>
  <use x="224.453125" y="644" xlink:href="#h"/>
  <use x="252.453125" y="644" xlink:href="#g"/>
  <use x="271.550781" y="644" xlink:href="#c"/>
  <use x="285.359375" y="644" xlink:href="#s"/>
  <use x="294.957031" y="644" xlink:href="#e"/>
  <use x="315" y="644" xlink:href="#a"/>
  <use x="333.992188" y="644" xlink:href="#f"/>
  <use x="353.921875" y="644" xlink:href="#b"/>
  <use x="70" y="672" xlink:href="#r"/>
  <use x="82.183594" y="672" xlink:href="#c"/>
  <use x="95.992188" y="672" xlink:href="#d"/>
  <use x="115.226562" y="672" xlink:href="#q"/>
  <use x="154.152344" y="672" xlink:href="#b"/>
  <use x="167.535156" y="672" xlink:href="#p"/>
  <use x="187.46875" y="672" xlink:href="#a"/>
  <use x="216.207031" y="672" xlink:href="#o"/>
  <use x="239.640625" y="672" xlink:href="#d"/>
  <use x="258.878906" y="672" xlink:href="#n"/>
  <use x="278.8125" y="672" xlink:href="#f"/>
  <use x="308.492188" y="672" xlink:href="#m"/>
  <use x="329.015625" y="672" xlink:href="#c"/>
  <use x="342.820312" y="672" xlink:href="#d"/>
  <use x="362.058594" y="672" xlink:href="#l"/>
  <use x="371.65625" y="672" xlink:href="#a"/>
  <use x="390.648438" y="672" xlink:href="#k"/>
  <use x="407.242188" y="672" xlink:href="#b"/>
 </g>
</symbol>


<!-- RIGHT ARROW ICON -->
<symbol id="icon__arrow-right" xmlns="http://www.w3.org/2000/svg" class="bi bi-arrow-right-short" viewBox="0 0 16 16">
  <path fill-rule="evenodd" d="M4 8a.5.5 0 0 1 .5-.5h5.793L8.146 5.354a.5.5 0 1 1 .708-.708l3 3a.5.5 0 0 1 0 .708l-3 3a.5.5 0 0 1-.708-.708L10.293 8.5H4.5A.5.5 0 0 1 4 8z"/>
</symbol>


<!-- WAVE UP -->
<!-- <symbol class="block fill-current text-bgLight bg-lightYellow -mt-1" viewBox="0 0 1366 149.29">
  <path d="M 0 53 L 45.53 74.3 C 91.07 96 182.13 138 273.2 133 S 455.33 74 546.4 63.7 C 637.47 53 728.53 85 819.6 111.7 c 91.07 26.3 182.13 48.3 273.2 32 c 91.07 -15.7 182.13 -69.7 227.67 -96 L 1366 21 V 0 L 0 0 Z"></path>
</symbol>

<symbol xmlns="http://www.w3.org/2000/svg" viewBox="0 0 1440 320">
  <path fill-opacity="1" d="M0,64L20,106.7C40,149,80,235,120,250.7C160,267,200,213,240,192C280,171,320,181,360,202.7C400,224,440,256,480,240C520,224,560,160,600,160C640,160,680,224,720,229.3C760,235,800,181,840,154.7C880,128,920,128,960,144C1000,160,1040,192,1080,218.7C1120,245,1160,267,1200,245.3C1240,224,1280,160,1320,128C1360,96,1400,96,1420,96L1440,96L1440,320L1420,320C1400,320,1360,320,1320,320C1280,320,1240,320,1200,320C1160,320,1120,320,1080,320C1040,320,1000,320,960,320C920,320,880,320,840,320C800,320,760,320,720,320C680,320,640,320,600,320C560,320,520,320,480,320C440,320,400,320,360,320C320,320,280,320,240,320C200,320,160,320,120,320C80,320,40,320,20,320L0,320Z"></path>
</symbol> -->

<svg id="icon__wave-up" viewBox="0 0 1440 120" version="1.1" xmlns="http://www.w3.org/2000/svg"><path d="M0,12L21.8,24C43.6,36,87,60,131,62C174.5,64,218,44,262,36C305.5,28,349,32,393,42C436.4,52,480,68,524,72C567.3,76,611,68,655,72C698.2,76,742,92,785,100C829.1,108,873,108,916,90C960,72,1004,36,1047,20C1090.9,4,1135,8,1178,20C1221.8,32,1265,52,1309,50C1352.7,48,1396,24,1440,12C1483.6,0,1527,0,1571,14C1614.5,28,1658,56,1702,56C1745.5,56,1789,28,1833,32C1876.4,36,1920,72,1964,90C2007.3,108,2051,108,2095,96C2138.2,84,2182,60,2225,54C2269.1,48,2313,60,2356,64C2400,68,2444,64,2487,52C2530.9,40,2575,20,2618,24C2661.8,28,2705,56,2749,66C2792.7,76,2836,68,2880,54C2923.6,40,2967,20,3011,10C3054.5,0,3098,0,3120,0L3141.8,0L3141.8,120L3120,120C3098.2,120,3055,120,3011,120C2967.3,120,2924,120,2880,120C2836.4,120,2793,120,2749,120C2705.5,120,2662,120,2618,120C2574.5,120,2531,120,2487,120C2443.6,120,2400,120,2356,120C2312.7,120,2269,120,2225,120C2181.8,120,2138,120,2095,120C2050.9,120,2007,120,1964,120C1920,120,1876,120,1833,120C1789.1,120,1745,120,1702,120C1658.2,120,1615,120,1571,120C1527.3,120,1484,120,1440,120C1396.4,120,1353,120,1309,120C1265.5,120,1222,120,1178,120C1134.5,120,1091,120,1047,120C1003.6,120,960,120,916,120C872.7,120,829,120,785,120C741.8,120,698,120,655,120C610.9,120,567,120,524,120C480,120,436,120,393,120C349.1,120,305,120,262,120C218.2,120,175,120,131,120C87.3,120,44,120,22,120L0,120Z"></path></svg>


<!-- WAVE DOWN -->
<symbol id="icon__wave-down" class="block fill-current text-lightYellow bg-bgDark" viewBox="0 0 1366 149.29">
  <path d="M 0 53 L 45.53 74.3 C 91.07 96 182.13 138 273.2 133 S 455.33 74 546.4 63.7 C 637.47 53 728.53 85 819.6 111.7 c 91.07 26.3 182.13 48.3 273.2 32 c 91.07 -15.7 182.13 -69.7 227.67 -96 L 1366 21 V 0 L 0 0 Z"></path>
</symbol>


<!-- FACEBOOK ICON -->
<symbol id="icon__facebook" xmlns="http://www.w3.org/2000/svg" class="bi bi-facebook" viewBox="0 0 16 16">
  <path d="M16 8.049c0-4.446-3.582-8.05-8-8.05C3.58 0-.002 3.603-.002 8.05c0 4.017 2.926 7.347 6.75 7.951v-5.625h-2.03V8.05H6.75V6.275c0-2.017 1.195-3.131 3.022-3.131.876 0 1.791.157 1.791.157v1.98h-1.009c-.993 0-1.303.621-1.303 1.258v1.51h2.218l-.354 2.326H9.25V16c3.824-.604 6.75-3.934 6.75-7.951z"/>
</symbol>

</defs>
</svg>



 

