<svg aria-hidden="true" style="position: absolute; width: 0; height: 0; overflow: hidden;" version="1.1" xmlns="http://www.w3.org/2000/svg" xmlns:xlink="http://www.w3.org/1999/xlink">
<defs>


<!-- PAGES ICON -->
<symbol id="icon__pages" xmlns="http://www.w3.org/2000/svg" class="bi bi-file-earmark" viewBox="0 0 16 16">
  <path d="M14 4.5V14a2 2 0 0 1-2 2H4a2 2 0 0 1-2-2V2a2 2 0 0 1 2-2h5.5L14 4.5zm-3 0A1.5 1.5 0 0 1 9.5 3V1H4a1 1 0 0 0-1 1v12a1 1 0 0 0 1 1h8a1 1 0 0 0 1-1V4.5h-2z"/>
</symbol>


<!-- RIGHT ARROW ICON -->
<symbol id="icon__arrow-right" xmlns="http://www.w3.org/2000/svg" class="bi bi-arrow-right-short" viewBox="0 0 16 16">
  <path fill-rule="evenodd" d="M4 8a.5.5 0 0 1 .5-.5h5.793L8.146 5.354a.5.5 0 1 1 .708-.708l3 3a.5.5 0 0 1 0 .708l-3 3a.5.5 0 0 1-.708-.708L10.293 8.5H4.5A.5.5 0 0 1 4 8z"/>
</symbol>


<!-- WAVE UP -->
<!-- <symbol class="block fill-current text-bgLight bg-lightYellow -mt-1" viewBox="0 0 1366 149.29">
  <path d="M 0 53 L 45.53 74.3 C 91.07 96 182.13 138 273.2 133 S 455.33 74 546.4 63.7 C 637.47 53 728.53 85 819.6 111.7 c 91.07 26.3 182.13 48.3 273.2 32 c 91.07 -15.7 182.13 -69.7 227.67 -96 L 1366 21 V 0 L 0 0 Z"></path>
</symbol>

<symbol xmlns="http://www.w3.org/2000/svg" viewBox="0 0 1440 320">
  <path fill-opacity="1" d="M0,64L20,106.7C40,149,80,235,120,250.7C160,267,200,213,240,192C280,171,320,181,360,202.7C400,224,440,256,480,240C520,224,560,160,600,160C640,160,680,224,720,229.3C760,235,800,181,840,154.7C880,128,920,128,960,144C1000,160,1040,192,1080,218.7C1120,245,1160,267,1200,245.3C1240,224,1280,160,1320,128C1360,96,1400,96,1420,96L1440,96L1440,320L1420,320C1400,320,1360,320,1320,320C1280,320,1240,320,1200,320C1160,320,1120,320,1080,320C1040,320,1000,320,960,320C920,320,880,320,840,320C800,320,760,320,720,320C680,320,640,320,600,320C560,320,520,320,480,320C440,320,400,320,360,320C320,320,280,320,240,320C200,320,160,320,120,320C80,320,40,320,20,320L0,320Z"></path>
</symbol> -->

<symbol id="icon__wave-up" viewBox="0 0 1440 120" version="1.1" xmlns="http://www.w3.org/2000/svg"><path d="M0,12L21.8,24C43.6,36,87,60,131,62C174.5,64,218,44,262,36C305.5,28,349,32,393,42C436.4,52,480,68,524,72C567.3,76,611,68,655,72C698.2,76,742,92,785,100C829.1,108,873,108,916,90C960,72,1004,36,1047,20C1090.9,4,1135,8,1178,20C1221.8,32,1265,52,1309,50C1352.7,48,1396,24,1440,12C1483.6,0,1527,0,1571,14C1614.5,28,1658,56,1702,56C1745.5,56,1789,28,1833,32C1876.4,36,1920,72,1964,90C2007.3,108,2051,108,2095,96C2138.2,84,2182,60,2225,54C2269.1,48,2313,60,2356,64C2400,68,2444,64,2487,52C2530.9,40,2575,20,2618,24C2661.8,28,2705,56,2749,66C2792.7,76,2836,68,2880,54C2923.6,40,2967,20,3011,10C3054.5,0,3098,0,3120,0L3141.8,0L3141.8,120L3120,120C3098.2,120,3055,120,3011,120C2967.3,120,2924,120,2880,120C2836.4,120,2793,120,2749,120C2705.5,120,2662,120,2618,120C2574.5,120,2531,120,2487,120C2443.6,120,2400,120,2356,120C2312.7,120,2269,120,2225,120C2181.8,120,2138,120,2095,120C2050.9,120,2007,120,1964,120C1920,120,1876,120,1833,120C1789.1,120,1745,120,1702,120C1658.2,120,1615,120,1571,120C1527.3,120,1484,120,1440,120C1396.4,120,1353,120,1309,120C1265.5,120,1222,120,1178,120C1134.5,120,1091,120,1047,120C1003.6,120,960,120,916,120C872.7,120,829,120,785,120C741.8,120,698,120,655,120C610.9,120,567,120,524,120C480,120,436,120,393,120C349.1,120,305,120,262,120C218.2,120,175,120,131,120C87.3,120,44,120,22,120L0,120Z"></path></symbol>


<!-- WAVE DOWN -->
<symbol id="icon__wave-down" class="block fill-current text-lightYellow bg-bgDark" viewBox="0 0 1366 149.29">
  <path d="M 0 53 L 45.53 74.3 C 91.07 96 182.13 138 273.2 133 S 455.33 74 546.4 63.7 C 637.47 53 728.53 85 819.6 111.7 c 91.07 26.3 182.13 48.3 273.2 32 c 91.07 -15.7 182.13 -69.7 227.67 -96 L 1366 21 V 0 L 0 0 Z"></path>
</symbol>


<!-- FACEBOOK ICON -->
<symbol id="icon__facebook" xmlns="http://www.w3.org/2000/svg" class="bi bi-facebook" viewBox="0 0 16 16">
  <path d="M16 8.049c0-4.446-3.582-8.05-8-8.05C3.58 0-.002 3.603-.002 8.05c0 4.017 2.926 7.347 6.75 7.951v-5.625h-2.03V8.05H6.75V6.275c0-2.017 1.195-3.131 3.022-3.131.876 0 1.791.157 1.791.157v1.98h-1.009c-.993 0-1.303.621-1.303 1.258v1.51h2.218l-.354 2.326H9.25V16c3.824-.604 6.75-3.934 6.75-7.951z"/>
</symbol>

<!-- INSTAGRAM ICON -->
<symbol id="icon__instagram" xmlns="http://www.w3.org/2000/svg" class="bi bi-instagram" viewBox="0 0 16 16">
  <path d="M8 0C5.829 0 5.556.01 4.703.048 3.85.088 3.269.222 2.76.42a3.917 3.917 0 0 0-1.417.923A3.927 3.927 0 0 0 .42 2.76C.222 3.268.087 3.85.048 4.7.01 5.555 0 5.827 0 8.001c0 2.172.01 2.444.048 3.297.04.852.174 1.433.372 1.942.205.526.478.972.923 1.417.444.445.89.719 1.416.923.51.198 1.09.333 1.942.372C5.555 15.99 5.827 16 8 16s2.444-.01 3.298-.048c.851-.04 1.434-.174 1.943-.372a3.916 3.916 0 0 0 1.416-.923c.445-.445.718-.891.923-1.417.197-.509.332-1.09.372-1.942C15.99 10.445 16 10.173 16 8s-.01-2.445-.048-3.299c-.04-.851-.175-1.433-.372-1.941a3.926 3.926 0 0 0-.923-1.417A3.911 3.911 0 0 0 13.24.42c-.51-.198-1.092-.333-1.943-.372C10.443.01 10.172 0 7.998 0h.003zm-.717 1.442h.718c2.136 0 2.389.007 3.232.046.78.035 1.204.166 1.486.275.373.145.64.319.92.599.28.28.453.546.598.92.11.281.24.705.275 1.485.039.843.047 1.096.047 3.231s-.008 2.389-.047 3.232c-.035.78-.166 1.203-.275 1.485a2.47 2.47 0 0 1-.599.919c-.28.28-.546.453-.92.598-.28.11-.704.24-1.485.276-.843.038-1.096.047-3.232.047s-2.39-.009-3.233-.047c-.78-.036-1.203-.166-1.485-.276a2.478 2.478 0 0 1-.92-.598 2.48 2.48 0 0 1-.6-.92c-.109-.281-.24-.705-.275-1.485-.038-.843-.046-1.096-.046-3.233 0-2.136.008-2.388.046-3.231.036-.78.166-1.204.276-1.486.145-.373.319-.64.599-.92.28-.28.546-.453.92-.598.282-.11.705-.24 1.485-.276.738-.034 1.024-.044 2.515-.045v.002zm4.988 1.328a.96.96 0 1 0 0 1.92.96.96 0 0 0 0-1.92zm-4.27 1.122a4.109 4.109 0 1 0 0 8.217 4.109 4.109 0 0 0 0-8.217zm0 1.441a2.667 2.667 0 1 1 0 5.334 2.667 2.667 0 0 1 0-5.334z"/>
</symbol>

<!-- TWITTER ICON -->
<symbol id="icon__twitter" xmlns="http://www.w3.org/2000/svg" class="bi bi-twitter" viewBox="0 0 16 16">
  <path d="M5.026 15c6.038 0 9.341-5.003 9.341-9.334 0-.14 0-.282-.006-.422A6.685 6.685 0 0 0 16 3.542a6.658 6.658 0 0 1-1.889.518 3.301 3.301 0 0 0 1.447-1.817 6.533 6.533 0 0 1-2.087.793A3.286 3.286 0 0 0 7.875 6.03a9.325 9.325 0 0 1-6.767-3.429 3.289 3.289 0 0 0 1.018 4.382A3.323 3.323 0 0 1 .64 6.575v.045a3.288 3.288 0 0 0 2.632 3.218 3.203 3.203 0 0 1-.865.115 3.23 3.23 0 0 1-.614-.057 3.283 3.283 0 0 0 3.067 2.277A6.588 6.588 0 0 1 .78 13.58a6.32 6.32 0 0 1-.78-.045A9.344 9.344 0 0 0 5.026 15z"/>
</symbol>


<!-- LINKED IN ICON -->
<symbol id="icon__linked-in" xmlns="http://www.w3.org/2000/svg" class="bi bi-linkedin" viewBox="0 0 16 16">
  <path d="M0 1.146C0 .513.526 0 1.175 0h13.65C15.474 0 16 .513 16 1.146v13.708c0 .633-.526 1.146-1.175 1.146H1.175C.526 16 0 15.487 0 14.854V1.146zm4.943 12.248V6.169H2.542v7.225h2.401zm-1.2-8.212c.837 0 1.358-.554 1.358-1.248-.015-.709-.52-1.248-1.342-1.248-.822 0-1.359.54-1.359 1.248 0 .694.521 1.248 1.327 1.248h.016zm4.908 8.212V9.359c0-.216.016-.432.08-.586.173-.431.568-.878 1.232-.878.869 0 1.216.662 1.216 1.634v3.865h2.401V9.25c0-2.22-1.184-3.252-2.764-3.252-1.274 0-1.845.7-2.165 1.193v.025h-.016a5.54 5.54 0 0 1 .016-.025V6.169h-2.4c.03.678 0 7.225 0 7.225h2.4z"/>
</symbol>


<!-- HEART ICON -->
<symbol id="icon__heart" xmlns="http://www.w3.org/2000/svg" class="bi bi-heart" viewBox="0 0 16 16">
  <path d="m8 2.748-.717-.737C5.6.281 2.514.878 1.4 3.053c-.523 1.023-.641 2.5.314 4.385.92 1.815 2.834 3.989 6.286 6.357 3.452-2.368 5.365-4.542 6.286-6.357.955-1.886.838-3.362.314-4.385C13.486.878 10.4.28 8.717 2.01L8 2.748zM8 15C-7.333 4.868 3.279-3.04 7.824 1.143c.06.055.119.112.176.171a3.12 3.12 0 0 1 .176-.17C12.72-3.042 23.333 4.867 8 15z"/>
</symbol>

<!-- NOTIFICATION ICON -->
<symbol id="icon__notification" xmlns="http://www.w3.org/2000/svg" class="bi bi-bell" viewBox="0 0 16 16">
  <path d="M8 16a2 2 0 0 0 2-2H6a2 2 0 0 0 2 2zM8 1.918l-.797.161A4.002 4.002 0 0 0 4 6c0 .628-.134 2.197-.459 3.742-.16.767-.376 1.566-.663 2.258h10.244c-.287-.692-.502-1.49-.663-2.258C12.134 8.197 12 6.628 12 6a4.002 4.002 0 0 0-3.203-3.92L8 1.917zM14.22 12c.223.447.481.801.78 1H1c.299-.199.557-.553.78-1C2.68 10.2 3 6.88 3 6c0-2.42 1.72-4.44 4.005-4.901a1 1 0 1 1 1.99 0A5.002 5.002 0 0 1 13 6c0 .88.32 4.2 1.22 6z"/>
</symbol>

<!-- SEARCH ICON -->
<symbol id="icon__search" xmlns="http://www.w3.org/2000/svg" class="bi bi-search" viewBox="0 0 16 16">
  <path d="M11.742 10.344a6.5 6.5 0 1 0-1.397 1.398h-.001c.03.04.062.078.098.115l3.85 3.85a1 1 0 0 0 1.415-1.414l-3.85-3.85a1.007 1.007 0 0 0-.115-.1zM12 6.5a5.5 5.5 0 1 1-11 0 5.5 5.5 0 0 1 11 0z"/>
</symbol>


<!-- CLASS ICON -->
<symbol id="icon__class" xmlns="http://www.w3.org/2000/svg" class="bi bi-file-play" viewBox="0 0 16 16">
  <path d="M6 10.117V5.883a.5.5 0 0 1 .757-.429l3.528 2.117a.5.5 0 0 1 0 .858l-3.528 2.117a.5.5 0 0 1-.757-.43z"/>
  <path d="M4 0a2 2 0 0 0-2 2v12a2 2 0 0 0 2 2h8a2 2 0 0 0 2-2V2a2 2 0 0 0-2-2H4zm0 1h8a1 1 0 0 1 1 1v12a1 1 0 0 1-1 1H4a1 1 0 0 1-1-1V2a1 1 0 0 1 1-1z"/>
</symbol>


<!-- ARROW LEFT ICON -->
<symbol id="icon__arrow-left" xmlns="http://www.w3.org/2000/svg" class="bi bi-arrow-left" viewBox="0 0 16 16">
  <path fill-rule="evenodd" d="M15 8a.5.5 0 0 0-.5-.5H2.707l3.147-3.146a.5.5 0 1 0-.708-.708l-4 4a.5.5 0 0 0 0 .708l4 4a.5.5 0 0 0 .708-.708L2.707 8.5H14.5A.5.5 0 0 0 15 8z"/>
</symbol>








</defs>
</svg>



 

