<svg aria-hidden="true" style="position: absolute; width: 0; height: 0; overflow: hidden;" version="1.1" xmlns="http://www.w3.org/2000/svg" xmlns:xlink="http://www.w3.org/1999/xlink">
<defs>

<!-- LOVE ICON -->
<symbol id="icon__love" xmlns="http://www.w3.org/2000/svg" class="bi bi-heart" viewBox="0 0 16 16">
  <path d="m8 2.748-.717-.737C5.6.281 2.514.878 1.4 3.053c-.523 1.023-.641 2.5.314 4.385.92 1.815 2.834 3.989 6.286 6.357 3.452-2.368 5.365-4.542 6.286-6.357.955-1.886.838-3.362.314-4.385C13.486.878 10.4.28 8.717 2.01L8 2.748zM8 15C-7.333 4.868 3.279-3.04 7.824 1.143c.06.055.119.112.176.171a3.12 3.12 0 0 1 .176-.17C12.72-3.042 23.333 4.867 8 15z"/>
</symbol>


<!-- PAGES ICON -->
<symbol id="icon__pages" version="1.1" viewBox="0 0 700 700" xmlns="http://www.w3.org/2000/svg" xmlns:xlink="http://www.w3.org/1999/xlink">
 <g>
  <path d="m170.8 515.2h291.2c3.3594 0 5.6016-2.2383 5.6016-5.6016v-39.199h50.398c3.3594 0 5.6016-2.2383 5.6016-5.6016v-314.72c0-1.6797-0.55859-2.8008-1.6797-3.9219l-101.36-99.676c-1.1172-1.1211-2.2383-1.6797-3.918-1.6797h-201.04c-3.3594 0-5.6016 2.2383-5.6016 5.6016v50.398h-39.199c-3.3594 0-5.6016 2.2383-5.6016 5.6016v403.2c0 3.3594 2.2422 5.5977 5.6016 5.5977zm252-450.8 82.32 81.203h-82.32zm-201.6-8.3984h190.4v95.199c0 3.3594 2.2383 5.6016 5.6016 5.6016h95.199v302.4h-291.2zm-44.801 56h33.602v352.8c0 3.3594 2.2383 5.6016 5.6016 5.6016h240.8v33.602l-280-0.003906z"/>
  <use x="70" y="644" xlink:href="#t"/>
  <use x="90.550781" y="644" xlink:href="#c"/>
  <use x="104.359375" y="644" xlink:href="#a"/>
  <use x="123.347656" y="644" xlink:href="#j"/>
  <use x="142.242188" y="644" xlink:href="#b"/>
  <use x="155.628906" y="644" xlink:href="#a"/>
  <use x="174.617188" y="644" xlink:href="#e"/>
  <use x="204.410156" y="644" xlink:href="#i"/>
  <use x="224.453125" y="644" xlink:href="#h"/>
  <use x="252.453125" y="644" xlink:href="#g"/>
  <use x="271.550781" y="644" xlink:href="#c"/>
  <use x="285.359375" y="644" xlink:href="#s"/>
  <use x="294.957031" y="644" xlink:href="#e"/>
  <use x="315" y="644" xlink:href="#a"/>
  <use x="333.992188" y="644" xlink:href="#f"/>
  <use x="353.921875" y="644" xlink:href="#b"/>
  <use x="70" y="672" xlink:href="#r"/>
  <use x="82.183594" y="672" xlink:href="#c"/>
  <use x="95.992188" y="672" xlink:href="#d"/>
  <use x="115.226562" y="672" xlink:href="#q"/>
  <use x="154.152344" y="672" xlink:href="#b"/>
  <use x="167.535156" y="672" xlink:href="#p"/>
  <use x="187.46875" y="672" xlink:href="#a"/>
  <use x="216.207031" y="672" xlink:href="#o"/>
  <use x="239.640625" y="672" xlink:href="#d"/>
  <use x="258.878906" y="672" xlink:href="#n"/>
  <use x="278.8125" y="672" xlink:href="#f"/>
  <use x="308.492188" y="672" xlink:href="#m"/>
  <use x="329.015625" y="672" xlink:href="#c"/>
  <use x="342.820312" y="672" xlink:href="#d"/>
  <use x="362.058594" y="672" xlink:href="#l"/>
  <use x="371.65625" y="672" xlink:href="#a"/>
  <use x="390.648438" y="672" xlink:href="#k"/>
  <use x="407.242188" y="672" xlink:href="#b"/>
 </g>
</symbol>


</defs>
</svg>



 

